<svg width="35" height="36" viewBox="0 0 35 36" fill="none" xmlns="http://www.w3.org/2000/svg">
<g clip-path="url(#clip0_158_178)">
<path fill-rule="evenodd" clip-rule="evenodd" d="M18.0468 1.02092e-07C19.6445 -0.000557471 21.1875 0.598381 22.3864 1.6845C23.5854 2.77061 24.358 4.2693 24.5593 5.89951C24.7606 7.52972 24.3768 9.17947 23.4799 10.5394C22.5829 11.8993 21.2345 12.876 19.6875 13.2863L19.6875 22.7138C21.2346 23.1245 22.583 24.1015 23.4799 25.4617C24.3767 26.8219 24.7605 28.4718 24.5592 30.1023C24.358 31.7327 23.5855 33.2316 22.3866 34.3181C21.1877 35.4046 19.6447 36.004 18.0468 36.004C16.449 36.004 14.906 35.4046 13.7071 34.3181C12.5082 33.2316 11.7357 31.7327 11.5344 30.1023C11.3332 28.4718 11.7169 26.8219 12.6138 25.4617C13.5107 24.1015 14.8591 23.1245 16.4062 22.7138L16.4062 13.2863C14.8625 12.8725 13.5181 11.8947 12.6243 10.5356C11.7305 9.17654 11.3483 7.52921 11.5493 5.90146C11.7503 4.27371 12.5207 2.77693 13.7165 1.69086C14.9122 0.604777 16.4516 0.00371586 18.0468 1.02092e-07ZM21.3281 6.75C21.3281 5.8549 20.9824 4.99645 20.367 4.36352C19.7517 3.73058 18.9171 3.375 18.0468 3.375C17.1766 3.375 16.342 3.73058 15.7266 4.36352C15.1113 4.99645 14.7656 5.8549 14.7656 6.75C14.7656 7.64511 15.1113 8.50355 15.7266 9.13649C16.342 9.76942 17.1766 10.125 18.0468 10.125C18.9171 10.125 19.7517 9.76942 20.367 9.13649C20.9824 8.50355 21.3281 7.64511 21.3281 6.75ZM21.3281 29.25C21.3281 28.3549 20.9824 27.4965 20.367 26.8635C19.7517 26.2306 18.9171 25.875 18.0468 25.875C17.1766 25.875 16.342 26.2306 15.7266 26.8635C15.1113 27.4965 14.7656 28.3549 14.7656 29.25C14.7656 30.1451 15.1113 31.0036 15.7266 31.6365C16.342 32.2694 17.1766 32.625 18.0468 32.625C18.9171 32.625 19.7517 32.2694 20.367 31.6365C20.9824 31.0036 21.3281 30.1451 21.3281 29.25Z" fill="#B53C06"/>
</g>
<defs>
<clipPath id="clip0_158_178">
<rect width="36" height="35" fill="white" transform="translate(35) rotate(90)"/>
</clipPath>
</defs>
</svg>
