<svg width="64" height="64" viewBox="0 0 64 64" fill="none" xmlns="http://www.w3.org/2000/svg">
<path d="M9.88 38.344C10.072 39.928 10.552 41.08 11.176 41.896C12.328 43.288 14.344 44.008 17.176 44.008C18.904 44.008 20.296 43.816 21.352 43.432C23.368 42.712 24.376 41.368 24.376 39.448C24.376 38.296 23.896 37.432 22.888 36.808C21.88 36.184 20.296 35.656 18.136 35.176L14.488 34.36C10.936 33.544 8.44 32.68 7.048 31.72C4.744 30.088 3.544 27.64 3.544 24.232C3.544 21.112 4.696 18.568 6.952 16.504C9.16 14.488 12.472 13.432 16.84 13.432C20.488 13.432 23.608 14.392 26.152 16.312C28.744 18.28 30.088 21.064 30.184 24.76H23.272C23.128 22.648 22.216 21.16 20.536 20.296C19.432 19.72 17.992 19.432 16.36 19.432C14.488 19.432 13 19.816 11.896 20.584C10.792 21.304 10.216 22.36 10.216 23.704C10.216 24.952 10.792 25.864 11.896 26.488C12.568 26.872 14.056 27.352 16.36 27.928L22.312 29.32C24.952 29.992 26.92 30.808 28.216 31.864C30.28 33.448 31.336 35.848 31.336 38.92C31.336 42.04 30.136 44.68 27.736 46.744C25.288 48.856 21.88 49.912 17.464 49.912C13 49.912 9.448 48.856 6.856 46.792C4.264 44.776 3.016 41.944 3.016 38.344H9.88ZM43.9116 42.808H60.9996V49H36.6636V14.44H43.9116V42.808Z" fill="#878383"/>
<path d="M9.88 38.344C10.072 39.928 10.552 41.08 11.176 41.896C12.328 43.288 14.344 44.008 17.176 44.008C18.904 44.008 20.296 43.816 21.352 43.432C23.368 42.712 24.376 41.368 24.376 39.448C24.376 38.296 23.896 37.432 22.888 36.808C21.88 36.184 20.296 35.656 18.136 35.176L14.488 34.36C10.936 33.544 8.44 32.68 7.048 31.72C4.744 30.088 3.544 27.64 3.544 24.232C3.544 21.112 4.696 18.568 6.952 16.504C9.16 14.488 12.472 13.432 16.84 13.432C20.488 13.432 23.608 14.392 26.152 16.312C28.744 18.28 30.088 21.064 30.184 24.76H23.272C23.128 22.648 22.216 21.16 20.536 20.296C19.432 19.72 17.992 19.432 16.36 19.432C14.488 19.432 13 19.816 11.896 20.584C10.792 21.304 10.216 22.36 10.216 23.704C10.216 24.952 10.792 25.864 11.896 26.488C12.568 26.872 14.056 27.352 16.36 27.928L22.312 29.32C24.952 29.992 26.92 30.808 28.216 31.864C30.28 33.448 31.336 35.848 31.336 38.92C31.336 42.04 30.136 44.68 27.736 46.744C25.288 48.856 21.88 49.912 17.464 49.912C13 49.912 9.448 48.856 6.856 46.792C4.264 44.776 3.016 41.944 3.016 38.344H9.88ZM43.9116 42.808H60.9996V49H36.6636V14.44H43.9116V42.808Z" fill="#FF4D00"/>
</svg>
