<svg width="26" height="26" viewBox="0 0 26 26" fill="none" xmlns="http://www.w3.org/2000/svg">
<path d="M1.05456 22.6546C0.421917 23.2872 0.421917 24.3128 1.05456 24.9455C1.6872 25.5781 2.71294 25.5781 3.34559 24.9455L1.05456 22.6546ZM14.1455 14.1455C14.7782 13.5128 14.7782 12.4872 14.1455 11.8546C13.5129 11.2219 12.4873 11.2219 11.8546 11.8546L14.1455 14.1455ZM11.8546 11.8546C11.222 12.4872 11.222 13.5128 11.8546 14.1455C12.4873 14.7781 13.5129 14.7781 14.1455 14.1455L11.8546 11.8546ZM24.9455 3.34553C25.5782 2.71288 25.5782 1.68714 24.9455 1.0545C24.3129 0.421856 23.2873 0.421856 22.6546 1.0545L24.9455 3.34553ZM14.1455 11.8546C13.5129 11.2219 12.4873 11.2219 11.8546 11.8546C11.222 12.4872 11.222 13.5128 11.8546 14.1455L14.1455 11.8546ZM22.6546 24.9455C23.2873 25.5781 24.3129 25.5781 24.9455 24.9455C25.5782 24.3128 25.5782 23.2872 24.9455 22.6546L22.6546 24.9455ZM11.8546 14.1455C12.4873 14.7781 13.5129 14.7781 14.1455 14.1455C14.7782 13.5128 14.7782 12.4872 14.1455 11.8546L11.8546 14.1455ZM3.34559 1.0545C2.71294 0.421856 1.6872 0.421856 1.05456 1.0545C0.421917 1.68714 0.421917 2.71288 1.05456 3.34553L3.34559 1.0545ZM3.34559 24.9455L14.1455 14.1455L11.8546 11.8546L1.05456 22.6546L3.34559 24.9455ZM14.1455 14.1455L24.9455 3.34553L22.6546 1.0545L11.8546 11.8546L14.1455 14.1455ZM11.8546 14.1455L22.6546 24.9455L24.9455 22.6546L14.1455 11.8546L11.8546 14.1455ZM14.1455 11.8546L3.34559 1.0545L1.05456 3.34553L11.8546 14.1455L14.1455 11.8546Z" fill="#FF4D00"/>
</svg>
